<?xml version="1.0" encoding="utf-8"?>
<!-- Generator: Adobe Illustrator 28.0.0, SVG Export Plug-In . SVG Version: 6.00 Build 0)  -->
<svg version="1.1" id="Layer_1" xmlns="http://www.w3.org/2000/svg" xmlns:xlink="http://www.w3.org/1999/xlink" x="0px" y="0px"
	 viewBox="0 0 192 192" style="enable-background:new 0 0 192 192;" xml:space="preserve">
<g>
	<path d="M81.1,90.6c3,1.4,5.6,0.7,8-2.2c1.6-4.8,0.3-8.7-4-11.7c-3.2-2.2-6.3-2.1-9.4,0.4C73,83.2,74.8,87.7,81.1,90.6z"/>
	<path d="M115.2,76.1c-2.7-1.2-5.4-1.2-8.2,0c-3.5,3.1-5.1,6.2-4.9,9.4C104.5,99.2,124.2,85.2,115.2,76.1z"/>
	<path d="M146.5,108.9l-8.6-3.5c-0.4-0.2-0.4-0.3,0-0.5l8.5-3.6c3.5-2,6.6-4.5,9.3-7.5c6-6.8,13.6-23.8,4.2-30.9
		c-2.7-1.3-5.6-1.8-8.8-1.6c-5.6,0.3-11.1,2.2-16.5,5.7l-4.8,4.1l-2,3.4c-0.3,0.5-0.2,0.7,0.4,0.6c0.8-0.2,1.5-0.5,2.1-0.9
		c6.3-2.9,12.7-5.9,19.6-5.9c3.4,0.2,5.2,2.2,5.5,6c0.1,3.6-0.7,6.9-2.3,9.9c-3.5,5.7-8.1,9.9-13.6,12.5l-3.5,1.9l-2,1
		c-0.9,0.4-1.6,0.6-2.1,0.6c-0.4,0-0.6-0.2-0.6-0.6c0.1-11.4-2.7-22.3-8.4-32.7l8.8-9.9l2.7-3.5l3.7-7c0-3.9-2.5-4.1-7.5-0.5
		c-2.2,2-5,3.1-8.6,3.2c-1,0.4-1.6,0.9-1.9,1.7l-0.1,5c0,0.1,0,0.3-0.1,0.4c-0.2,0.3-0.6,0.3-0.9,0.1c-4.9-3.8-1.8-11-1.1-16.1
		c-0.2-2.4-1.5-4.5-3.8-6.2c-2.1-1.6-3.8-1.5-5.2,0.6c-1.7,2.5-3.5,4.8-5.3,6.9c-8.6,9.3-16-0.6-20.9-8.1c-5.9-0.4-8.6,3-7.9,10.3
		l1,4.1c1.1,4.1,0.2,7.1-2.7,8.8c-0.4,0.3-0.6,0.1-0.6-0.4l0.1-2.5c0.2-1.1,0.1-2.2-0.3-3.2c-0.6-1-1.8-1.5-3.8-1.6
		c-2.2,0-4.5-1.1-7-3.1c-1.7-1.7-3.7-2.5-6.1-2.3c-1.4,0.9-1.6,2.5-0.4,4.8l2.4,4.1l0.8,1.4l11.3,12.9c-5.8,10.5-8.6,21.4-8.5,32.8
		c0,0.4-0.2,0.5-0.6,0.4c-9.8-2.9-17.1-8.7-22-17.3c-2.8-6.3-2.2-11.1,1.6-14.4l4.2-0.2c6.4,0.5,13.9,4,19.6,6.9
		c0.1,0.1,0.3,0.1,0.5,0c0.2-0.1,0.3-0.4,0.1-0.6L61.6,71c-2.8-3.1-6.2-5.5-10-7.1l-6.2-2.1l-9.9-0.3c-2.8,0.9-4.8,2.2-6.1,3.9
		c-2.5,3.3-1.8,10.1-0.5,14.2c1.7,8.4,6.6,15.3,14.7,20.6l10.2,4.7c0.4,0.2,0.4,0.4,0,0.6l-6.8,2.8l-2.7,1.3c-3.3,2-6.2,4.4-8.7,7.2
		l-2,3c-4.1,7.2,2,14.6,8.3,17.3c7.2,3.1,15.1,1.5,21.3-3.3l3-2.6l1.8-1.7c0.4-0.4,0.5-0.7,0.2-0.9l-1.7,0.8c-2.2,1.2-4.5,2-6.9,2.2
		c-0.1,0.1-0.4,0.2-0.9,0.2c-2.7,0.5-5.2,0.4-7.6-0.4c-1.3-0.3-2.4-0.8-3.4-1.5c-4.7-3.7-5.1-8.8-0.6-12.9c4-3.7,8.8-6.1,14.4-7.2
		c0.3-0.1,0.5,0.1,0.6,0.4l3.2,9.8c0.4,0.3,0.6,0.8,0.5,1.2l3.9,7.5c3.3,4.2,5.7,6.8,7.2,8c5.5,4.1,10.1,8.7,13.9,13.9l2.7,5.3
		l1.7,2.8c0.2,0.4,0.4,0.4,0.7,0l0.5-0.8l0.4-0.9l1.7-3.4c4.3-7.4,9-11.2,14.8-16.2c8.3-7.3,13.4-16.5,16-27.2
		c0.1-0.4,0.3-0.5,0.7-0.4l3,0.9l5.3,2.3c3.8,1.7,8.6,5.1,9,9.5c0.4,5-4.1,8.7-8.7,9.5c-2.4,0.4-4.7,0.3-6.8-0.3
		c-2.6-0.3-5-1.1-7.2-2.4c-1.8-0.7-1.5,0.1,0.9,2.3c2.5,2.5,5.3,4.3,8.2,5.5c4.4,1.8,8.5,2.1,12.5,1.1c8.4-2.1,16-9.2,11.7-18.6
		C155.3,115,151.4,111.4,146.5,108.9z M132,50c0,0,0.1,0,0.1,0c-0.1,0-0.2,0-0.2,0C131.9,50.1,131.9,50,132,50z M30.7,65.6
		C30.7,65.6,30.7,65.6,30.7,65.6C30.7,65.6,30.7,65.6,30.7,65.6z M30.6,65.5C30.6,65.5,30.6,65.5,30.6,65.5
		C30.6,65.5,30.6,65.5,30.6,65.5C30.6,65.5,30.6,65.5,30.6,65.5z M30.5,65.5c0,0-0.1,0-0.1,0.1C30.4,65.6,30.5,65.5,30.5,65.5z
		 M43.6,99.2C43.6,99.2,43.6,99.2,43.6,99.2C43.6,99.1,43.6,99.1,43.6,99.2C43.6,99.1,43.6,99.2,43.6,99.2z M57.6,108
		C57.6,108,57.6,108,57.6,108c0,0.1,0,0.1,0,0.1C57.7,108.1,57.6,108.1,57.6,108z M65.7,90.4c0.5-3.8,1.7-7.5,3.4-10.9l3.3-6.8
		c0.3-1,0.8-1.8,1.6-2.2c14.6,3,29.3,3.1,43.9,0.1l1.3,2c2,3.1,3.6,6.5,4.8,10.3l2,7.4c0.1,0.4,0,0.7-0.3,0.9c-2.5,2-5.5,3.5-9,4.4
		c-12.7,3.5-25.8,3.8-39.2,0.7l-9-3.3l-2.6-1.8C65.8,91,65.7,90.7,65.7,90.4z M93,150.6C93,150.6,93,150.6,93,150.6
		C93,150.6,93,150.6,93,150.6C93,150.6,93,150.6,93,150.6z M123.6,119.6c-0.1,0.3-0.3,0.5-0.6,0.6l-4.1,1.4l-8.3,1.7
		c-9.1,1.4-18.6,1.5-28.4,0.1l-8.3-1.5l-4.8-1.5c-0.3-0.1-0.6-0.3-0.7-0.7c-1.7-4.3-2.8-8.7-3.3-13.2c-0.1-0.5,0.1-0.6,0.6-0.5
		c18.7,6.5,42.8,7.5,60.8-0.3c0.1,0,0.1,0,0.2,0c0.2,0,0.4,0.2,0.3,0.4C126.5,110.7,125.3,115.3,123.6,119.6z M136.9,104.7
		C137,104.8,137,104.8,136.9,104.7C137,104.8,137,104.8,136.9,104.7C137,104.8,137,104.8,136.9,104.7z"/>
</g>
</svg>
