<svg width="374" height="374" viewBox="0 0 374 374" fill="none" xmlns="http://www.w3.org/2000/svg">
<path fill-rule="evenodd" clip-rule="evenodd" d="M268.876 251.044C252.047 261.349 232.645 269.447 210.67 275.336C186.262 281.875 163.258 284.497 141.656 283.201C120.055 281.904 101.65 276.269 86.443 266.295C71.2358 256.321 60.983 241.447 55.6846 221.673C50.3558 201.786 51.7904 183.75 59.9885 167.565C68.1865 151.381 81.3303 137.383 99.42 125.572C117.51 113.761 138.758 104.586 163.165 98.0462C187.459 91.5367 210.371 88.9095 231.902 90.1647C246.367 91.0081 259.414 93.8032 271.045 98.5499C276.724 100.868 282.066 103.652 287.069 106.901C302.317 116.803 312.591 131.641 317.89 151.415C323.187 171.189 321.718 189.204 313.479 205.461C312.327 207.732 311.081 209.96 309.739 212.147C308.79 207.877 306.886 204.154 304.026 200.978C302.622 199.419 301.062 197.987 299.342 196.682C295.823 194.011 291.645 191.874 286.808 190.271C279.607 187.884 271.584 186.691 262.739 186.691C253.852 186.691 245.799 187.874 238.578 190.24C231.356 192.606 225.617 196.164 221.358 200.916C217.1 205.668 214.972 211.665 214.972 218.906C214.972 226.107 217.1 232.093 221.358 236.865C225.617 241.638 231.356 245.228 238.578 247.635C245.799 250.041 253.852 251.245 262.739 251.245C264.83 251.245 266.875 251.178 268.876 251.044ZM191.892 238.223C190.205 240.033 187.233 241.956 182.975 243.994C178.716 246.03 173.584 247.747 167.577 249.147C161.57 250.545 155.11 251.245 148.198 251.245C142.15 251.245 136.225 250.659 130.424 249.486C124.623 248.314 119.377 246.452 114.687 243.901C109.997 241.35 106.263 238.017 103.486 233.903C100.709 229.789 99.3199 224.79 99.3199 218.906C99.3199 212.941 100.709 207.901 103.486 203.786C106.263 199.672 109.997 196.36 114.687 193.85C119.377 191.34 124.623 189.52 130.424 188.388C136.225 187.257 142.15 186.691 148.198 186.691C155.151 186.691 161.57 187.308 167.453 188.543C173.337 189.777 178.387 191.392 182.604 193.387C186.821 195.383 189.876 197.512 191.769 199.775L175.97 210.143C173.666 207.633 170.169 205.627 165.478 204.126C160.788 202.624 155.09 201.873 148.383 201.873C145.092 201.873 141.77 202.13 138.416 202.644C135.063 203.159 131.988 204.033 129.19 205.267C126.392 206.502 124.14 208.23 122.432 210.451C120.725 212.673 119.871 215.491 119.871 218.906C119.871 222.28 120.725 225.068 122.432 227.269C124.14 229.47 126.392 231.219 129.19 232.514C131.988 233.811 135.063 234.726 138.416 235.261C141.77 235.796 145.092 236.063 148.383 236.063C154.966 236.063 160.675 235.24 165.509 233.595C170.343 231.949 173.748 230.056 175.723 227.917L191.892 238.223ZM262.739 235.816C271.337 235.816 278.003 234.273 282.735 231.188C287.466 228.102 289.832 224.008 289.832 218.906C289.832 213.681 287.455 209.577 282.703 206.594C277.951 203.611 271.297 202.12 262.739 202.12C254.139 202.12 247.444 203.611 242.651 206.594C237.858 209.577 235.462 213.681 235.462 218.906C235.462 224.09 237.858 228.205 242.651 231.249C247.444 234.294 254.139 235.816 262.739 235.816Z" fill="black"/>
</svg>
